<svg xmlns="http://www.w3.org/2000/svg" viewBox="0 0 100 100">
  <defs>
    <linearGradient id="fireGradient" x1="0%" y1="100%" x2="0%" y2="0%">
      <stop offset="0%" style="stop-color:#E63946;stop-opacity:1" />
      <stop offset="50%" style="stop-color:#F77F00;stop-opacity:1" />
      <stop offset="100%" style="stop-color:#FFD60A;stop-opacity:1" />
    </linearGradient>
  </defs>

  <!-- Phoenix flame shape -->
  <path d="M 50 10
           C 45 15, 40 25, 40 35
           C 40 40, 42 45, 45 48
           C 43 50, 42 53, 42 56
           C 42 62, 46 68, 50 70
           C 54 68, 58 62, 58 56
           C 58 53, 57 50, 55 48
           C 58 45, 60 40, 60 35
           C 60 25, 55 15, 50 10 Z"
        fill="url(#fireGradient)" />

  <!-- Inner flame detail -->
  <path d="M 50 20
           C 47 23, 45 28, 45 33
           C 45 37, 47 40, 50 42
           C 53 40, 55 37, 55 33
           C 55 28, 53 23, 50 20 Z"
        fill="#FFD60A" opacity="0.8" />

  <!-- Phoenix body base -->
  <ellipse cx="50" cy="75" rx="15" ry="10" fill="#E63946" />

  <!-- Wing left -->
  <path d="M 35 75 Q 25 70, 20 80 Q 25 85, 35 82 Z"
        fill="#E63946" opacity="0.7" />

  <!-- Wing right -->
  <path d="M 65 75 Q 75 70, 80 80 Q 75 85, 65 82 Z"
        fill="#E63946" opacity="0.7" />

  <!-- Tail feathers -->
  <path d="M 50 85 L 45 95 L 50 92 L 55 95 Z"
        fill="#F77F00" />
</svg>
